<?xml version="1.0" encoding="utf-8"?>
<!-- Uploaded to: SVG Repo, www.svgrepo.com, Generator: SVG Repo Mixer Tools -->
<svg width="800px" height="800px" viewBox="0 0 1024 1024" class="icon"  version="1.1" xmlns="http://www.w3.org/2000/svg"><path d="M597.373952 350.977024h182.48704c74.063872 0 134.10304 60.101632 134.10304 134.12352v251.25888c0 74.074112-60.131328 134.12352-134.18496 134.12352H243.75296c-74.107904 0-134.18496-60.101632-134.18496-134.12352v-251.25888c0-74.074112 60.137472-134.12352 134.0416-134.12352h186.611712" fill="#FFF200" /><path d="M416.975872 518.588416c-4.287488 0-8.59136 1.6128-11.85792 4.880384-6.591488 6.58944-6.569984 17.130496-0.055296 23.64416l94.908416 94.908416c3.188736 3.188736 7.448576 4.811776 11.730944 4.825088l0.219136 0.002048a16.34304 16.34304 0 0 0 11.639808-4.827136l94.908416-94.908416c6.395904-6.39488 6.490112-17.1008-0.054272-23.64416-3.299328-3.299328-7.58784-4.941824-11.86816-4.941824a16.59904 16.59904 0 0 0-11.776 4.886528l-66.246656 66.245632V149.84704c0-9.230336-7.502848-16.72704-16.758784-16.72704a16.70144 16.70144 0 0 0-16.75776 16.72704v439.812096l-66.245632-66.245632c-3.202048-3.202048-7.48544-4.825088-11.78624-4.825088m517.46816-33.487872V736.3584c0 85.248-69.383168 154.60352-154.66496 154.60352H243.75296C158.470144 890.96192 89.088 821.6064 89.088 736.3584V485.09952c0-85.248 69.317632-154.60352 154.5216-154.60352h186.611712v40.96H243.6096c-62.6176 0-113.5616 50.980864-113.5616 113.64352V736.3584c0 62.66368 51.007488 113.64352 113.70496 113.64352h536.026112c62.696448 0 113.70496-50.97984 113.70496-113.64352V485.09952c0-62.662656-50.970624-113.64352-113.622016-113.64352h-182.48704v-40.96h182.48704c85.23776 0 154.58304 69.35552 154.58304 154.60352" fill="#000000" /></svg>